<?xml version="1.0" encoding="UTF-8"?>
<svg id="Camada_1" xmlns="http://www.w3.org/2000/svg" version="1.1" viewBox="0 0 1272.04 149.6">
  <!-- Generator: Adobe Illustrator 30.4.0, SVG Export Plug-In . SVG Version: 2.1.4 Build 226)  -->
  <defs>
    <style>
      .st0 {
        fill-rule: evenodd;
      }
    </style>
  </defs>
  <path class="st0" d="M1129.14,145.6V19.2h-48.6V2h116.6v17.2h-48.6v126.4h-19.4ZM1008.34,93c0,17.73-4.97,31.6-14.93,41.6-9.97,10-23.8,15-41.5,15s-32.47-4.8-42.1-14.43c-9.63-9.6-14.47-23.67-14.47-42.17V2h19.4v89.53c0,13.37,3.17,23.5,9.47,30.47,6.33,6.93,15.57,10.4,27.7,10.4s21.3-3.47,27.6-10.4c6.3-6.97,9.43-17.1,9.43-30.47V2h19.4v91ZM726.57,78.8v50.2h39.57c11.13,0,19.3-2.17,24.47-6.47s7.77-11.07,7.77-20.33c0-8.1-2.7-14.03-8.1-17.77-5.4-3.77-13.9-5.63-25.5-5.63h-38.2ZM726.57,18.6v44.4h34.7c10.57,0,18.27-1.9,23.17-5.7,4.9-3.8,7.33-9.77,7.33-17.97,0-7.13-2.23-12.37-6.73-15.73-4.5-3.33-11.57-5-21.23-5h-37.23ZM707.17,145.6V2h63.13c12.27,0,22.13,3.13,29.63,9.4,7.5,6.27,11.23,14.57,11.23,24.83,0,11.87-4.43,21.17-13.27,27.87-2.03,1.57-4.2,2.9-6.57,4,4.77,1.7,8.9,3.83,12.4,6.37,9.37,6.83,14.03,16.33,14.03,28.47,0,13.37-4.57,23.83-13.73,31.37-9.13,7.53-21.87,11.3-38.13,11.3h-58.73ZM522.4,145.6h0V2h105v17.2h-85.6v43.8h78.2v17.2h-78.2v48.2h86.6v17.2h-106ZM342.6,129h35.53c13.93,0,24.7-4.8,32.3-14.37,7.57-9.57,11.37-23.17,11.37-40.73s-3.63-31.27-10.93-40.9c-7.3-9.6-17.63-14.4-31.07-14.4h-37.2v110.4ZM323.2,145.6V2h58.97c18.2,0,32.7,6.5,43.47,19.5,10.77,12.97,16.17,30.47,16.17,52.4s-5.5,39.3-16.53,52.27c-11.03,12.97-25.93,19.43-44.67,19.43h-57.4ZM162.6,138v-62.8h82v-7.6h-82V10.4h87.2V2.8h-96v142.8h97v-7.6h-88.2ZM0,145.6h89.8v-7.6H8.8V2.8H0v142.8Z"/>
  <rect x="1221.44" y="2" width="48.6" height="48.6"/>
</svg>